<svg width="37" height="37" viewBox="0 0 37 37" fill="none" xmlns="http://www.w3.org/2000/svg">
<circle cx="18.4777" cy="18.2301" r="18.2301" fill="#D9D9D9"/>
<path d="M22.3129 11.7084C22.3129 11.6066 22.2725 11.509 22.2006 11.4371C22.1286 11.3651 22.031 11.3247 21.9293 11.3247H20.0111C19.0453 11.2766 18.0996 11.6128 17.3808 12.2597C16.6619 12.9066 16.2284 13.8118 16.1748 14.7774V16.849H14.2567C14.1549 16.849 14.0574 16.8894 13.9854 16.9614C13.9135 17.0333 13.873 17.1309 13.873 17.2326V19.2275C13.873 19.3293 13.9135 19.4268 13.9854 19.4988C14.0574 19.5707 14.1549 19.6111 14.2567 19.6111H16.1748V24.7518C16.1748 24.8535 16.2152 24.9511 16.2872 25.0231C16.3591 25.095 16.4567 25.1354 16.5585 25.1354H18.8602C18.962 25.1354 19.0596 25.095 19.1315 25.0231C19.2035 24.9511 19.2439 24.8535 19.2439 24.7518V19.6111H21.2541C21.3394 19.6124 21.4227 19.5851 21.4908 19.5337C21.5589 19.4823 21.6079 19.4096 21.6301 19.3273L22.1825 17.3324C22.1978 17.2757 22.1998 17.2163 22.1885 17.1587C22.1772 17.1011 22.1528 17.0468 22.1172 17.0001C22.0816 16.9534 22.0358 16.9155 21.9833 16.8893C21.9307 16.8631 21.8729 16.8493 21.8142 16.849H19.2439V14.7774C19.263 14.5875 19.3521 14.4115 19.494 14.2838C19.6359 14.1561 19.8203 14.0859 20.0111 14.0869H21.9293C22.031 14.0869 22.1286 14.0464 22.2006 13.9745C22.2725 13.9026 22.3129 13.805 22.3129 13.7032V11.7084Z" fill="#231F20"/>
</svg>
