<svg width="37" height="37" viewBox="0 0 37 37" fill="none" xmlns="http://www.w3.org/2000/svg">
<circle cx="18.3126" cy="18.4308" r="18.2301" fill="#D9D9D9"/>
<path d="M25.2272 12.2954C25.0838 12.2213 24.9442 12.14 24.8089 12.052C24.4156 11.7919 24.0549 11.4855 23.7347 11.1393C22.9336 10.2227 22.6344 9.29274 22.5242 8.64167H22.5286C22.4366 8.10125 22.4746 7.75159 22.4804 7.75159H18.8315V21.861C18.8315 22.0504 18.8315 22.2377 18.8236 22.4227C18.8236 22.4457 18.8213 22.4669 18.82 22.4917C18.82 22.5019 18.82 22.5125 18.8178 22.5231V22.5311C18.7793 23.0374 18.6171 23.5264 18.3452 23.9552C18.0734 24.384 17.7004 24.7394 17.2589 24.9902C16.7989 25.252 16.2785 25.3893 15.7492 25.3886C14.0492 25.3886 12.6713 24.0023 12.6713 22.2903C12.6713 20.5783 14.0492 19.1921 15.7492 19.1921C16.071 19.1918 16.3909 19.2424 16.6968 19.3421L16.7013 15.6269C15.7724 15.5069 14.8287 15.5807 13.9298 15.8437C13.0309 16.1067 12.1962 16.5531 11.4785 17.1548C10.8496 17.7012 10.3209 18.3532 9.9161 19.0814C9.76207 19.347 9.18093 20.4141 9.11055 22.146C9.06629 23.1291 9.36151 24.1475 9.50226 24.5684V24.5773C9.59078 24.8251 9.9338 25.671 10.4928 26.384C10.9436 26.956 11.4761 27.4584 12.0734 27.8751V27.8663L12.0822 27.8751C13.8487 29.0755 15.8072 28.9967 15.8072 28.9967C16.1462 28.983 17.282 28.9967 18.5717 28.3855C20.0022 27.7078 20.8166 26.6982 20.8166 26.6982C21.3369 26.095 21.7506 25.4075 22.04 24.6654C22.3702 23.7974 22.4804 22.7564 22.4804 22.3403V14.855C22.5246 14.8815 23.1142 15.2715 23.1142 15.2715C23.1142 15.2715 23.9635 15.8159 25.2887 16.1704C26.2394 16.4227 27.5203 16.4758 27.5203 16.4758V12.8535C27.0715 12.9022 26.1602 12.7606 25.2272 12.2954Z" fill="black"/>
</svg>
