<svg width="37" height="38" viewBox="0 0 37 38" fill="none" xmlns="http://www.w3.org/2000/svg">
<circle cx="18.3952" cy="18.9635" r="18.2301" fill="#D9D9D9"/>
<path d="M15.3889 25.1016C16.5235 25.1396 17.6541 24.9497 18.714 24.5433C19.774 24.1369 20.7417 23.5221 21.5599 22.7353C22.3782 21.9485 23.0305 21.0056 23.4781 19.9624C23.9258 18.9193 24.1599 17.7969 24.1664 16.6618C24.6863 16.0184 25.0724 15.2775 25.3019 14.4828C25.3191 14.42 25.3177 14.3536 25.298 14.2915C25.2782 14.2295 25.241 14.1745 25.1907 14.1332C25.1405 14.0918 25.0793 14.0659 25.0146 14.0585C24.95 14.0511 24.8846 14.0625 24.8262 14.0915C24.5542 14.2224 24.248 14.2647 23.9507 14.2124C23.6534 14.1601 23.3799 14.0158 23.169 13.7999C22.8996 13.5049 22.5738 13.2671 22.2108 13.1003C21.8479 12.9336 21.4551 12.8414 21.0559 12.8293C20.6566 12.8171 20.259 12.8852 19.8866 13.0295C19.5141 13.1738 19.1744 13.3915 18.8876 13.6695C18.495 14.0498 18.2073 14.5252 18.0527 15.0495C17.8981 15.5739 17.8818 16.1293 18.0053 16.6618C15.435 16.8152 13.6703 15.5953 12.2585 13.9227C12.2161 13.8746 12.1606 13.84 12.0988 13.823C12.0371 13.8059 11.9717 13.8073 11.9106 13.8268C11.8496 13.8463 11.7956 13.8832 11.7552 13.9329C11.7148 13.9827 11.6897 14.0431 11.6831 14.1068C11.4141 15.5987 11.6081 17.1371 12.239 18.5155C12.8699 19.8939 13.9075 21.0463 15.2125 21.8178C14.3375 22.8212 13.1088 23.4479 11.7828 23.5671C11.7118 23.5789 11.6462 23.6126 11.5952 23.6635C11.5443 23.7144 11.5106 23.7799 11.4987 23.851C11.4869 23.922 11.4975 23.995 11.5292 24.0596C11.5609 24.1243 11.612 24.1774 11.6754 24.2116C12.829 24.7881 14.0993 25.0926 15.3889 25.1016Z" fill="#231F20"/>
</svg>
