<svg width="37" height="37" viewBox="0 0 37 37" fill="none" xmlns="http://www.w3.org/2000/svg">
<circle cx="18.2301" cy="18.4308" r="18.2301" fill="#D9D9D9"/>
<path d="M27.3785 14.6684C27.3673 13.8943 27.2241 13.1263 26.9501 12.4024C26.4705 11.1661 25.4939 10.1885 24.2577 9.70996C23.5429 9.44103 22.7872 9.29685 22.0223 9.28048C21.0386 9.23651 20.7268 9.22424 18.2297 9.22424C15.7326 9.22424 15.4125 9.22424 14.436 9.28048C13.6721 9.29685 12.9164 9.44103 12.2017 9.70996C10.9654 10.1885 9.98783 11.1661 9.50928 12.4024C9.24034 13.1171 9.09514 13.8728 9.08082 14.6367C9.03685 15.6214 9.02356 15.9333 9.02356 18.4304C9.02356 20.9275 9.02356 21.2465 9.08082 22.2241C9.09616 22.989 9.24034 23.7436 9.50928 24.4604C9.98886 25.6957 10.9654 26.6733 12.2027 27.1518C12.9144 27.4299 13.6701 27.5874 14.437 27.612C15.4217 27.6559 15.7336 27.6692 18.2307 27.6692C20.7278 27.6692 21.0478 27.6692 22.0244 27.612C22.7882 27.5966 23.5439 27.4524 24.2597 27.1835C25.496 26.7039 26.4725 25.7264 26.9521 24.4911C27.221 23.7753 27.3652 23.0207 27.3805 22.2548C27.4245 21.2711 27.4378 20.9592 27.4378 18.4611C27.4358 15.964 27.4358 15.647 27.3785 14.6684ZM18.2235 23.1526C15.6119 23.1526 13.4962 21.0369 13.4962 18.4253C13.4962 15.8136 15.6119 13.698 18.2235 13.698C20.8331 13.698 22.9508 15.8136 22.9508 18.4253C22.9508 21.0369 20.8331 23.1526 18.2235 23.1526ZM23.139 14.6254C22.5285 14.6254 22.0367 14.1325 22.0367 13.5231C22.0367 12.9136 22.5285 12.4208 23.139 12.4208C23.7474 12.4208 24.2403 12.9136 24.2403 13.5231C24.2403 14.1325 23.7474 14.6254 23.139 14.6254Z" fill="black"/>
<path d="M18.2235 21.4948C19.9194 21.4948 21.2942 20.12 21.2942 18.424C21.2942 16.7281 19.9194 15.3533 18.2235 15.3533C16.5275 15.3533 15.1527 16.7281 15.1527 18.424C15.1527 20.12 16.5275 21.4948 18.2235 21.4948Z" fill="black"/>
</svg>
